# xmcd CD Database Entry
#
# Track frame offsets:
# 150
# 21732
# 37595
# 55980
# 71767
# 82850
# 94310
# 109882
# 122997
# 135600
# 147495
# 161550
# 177570
# 193587
# 209127
#
# Disc length: 2939 seconds
#
# Revision: 2
# Processed by: cddbd v1.4b41PL1 Copyright (c) Steve Scherf et al.
# Submitted via: tcd 2.0b
#
DISCID=e60b790f
DTITLE=Swing This, Baby!
DYEAR=1900
DGENRE=
TTITLE0=Jumpin' Jack
TTITLE1=Ding Dong Daddy of the D-Car Line
TTITLE2=Night Out
TTITLE3=(Everytime I Hear) That Mellow Saxophone
TTITLE4=We Still Talk That Way that Lovers Do
TTITLE5=Datin' With No Dough (Live)
TTITLE6=Bill's Bounce
TTITLE7=Rumpus Room Honeymoon
TTITLE8=Knockin' at Your Door
TTITLE9=Mr. Zoot Suit
TTITLE10=Pick Up the Phone
TTITLE11=Black and White
TTITLE12=We the Boys Will Rock Ya
TTITLE13=Boogie Man
TTITLE14=Lost for Words
EXTD=Swing Time Magazine and Slimstyle Reconds
EXTT0=Big Bad Voodoo Daddy\n
EXTT1=Cherry Poppin' Daddies
EXTT2=Blue Plate Special
EXTT3=Brian Setzer Orchestra
EXTT4=Johnny Favourite Swing Orchestra
EXTT5=Royal Crown Revue
EXTT6=The Bill Elliot Swing Orchestra
EXTT7=Steve Lucky and the Rhumba Bums
EXTT8=The New Morty Show
EXTT9=Flying Neutrinos
EXTT10=Swingerhead
EXTT11=Bellevue Cadillac
EXTT12=The Big Six
EXTT13=Red and The Red Hots
EXTT14=Crescent City Maulers
PLAYORDER=
